<svg xmlns="http://www.w3.org/2000/svg" width="130" height="130" viewBox="0 0 130 130"><g transform="translate(-140 -1943)"><rect width="130" height="130" rx="24" transform="translate(140 1943)" fill="#f2ca4b"/><g transform="translate(168 1971)"><path d="M59.112,0H15.556A15.574,15.574,0,0,0,0,15.556V59.112A15.574,15.574,0,0,0,15.556,74.668V65.334a21.778,21.778,0,0,1,43.556,0v9.333A15.574,15.574,0,0,0,74.668,59.112V15.556A15.574,15.574,0,0,0,59.112,0ZM37.334,37.334A12.445,12.445,0,1,1,49.779,24.889,12.445,12.445,0,0,1,37.334,37.334Z" fill="#282c32"/><circle cx="5.919" cy="5.919" r="5.919" transform="translate(31.084 18.212)" fill="#282c32"/><path d="M22.556,16A15.574,15.574,0,0,0,7,31.556v9.333H38.112V31.556A15.574,15.574,0,0,0,22.556,16Z" transform="translate(14.778 33.779)" fill="#282c32"/></g></g></svg>