<svg xmlns="http://www.w3.org/2000/svg" width="130" height="130" viewBox="0 0 130 130"><g transform="translate(-735 -1943)"><rect width="130" height="130" rx="24" transform="translate(735 1943)" fill="#f2ca4b"/><path d="M59.358,14.445H18.387a9.37,9.37,0,0,1-6.953-3.108,9.319,9.319,0,0,1,6.953-3.114H65.58c4.069-.019,4.066-6.207,0-6.222H18.387A15.557,15.557,0,0,0,2.831,17.556V48.667A15.557,15.557,0,0,0,18.387,64.223H59.358a9.333,9.333,0,0,0,9.333-9.333V23.778A9.333,9.333,0,0,0,59.358,14.445Zm-3.111,28c-4.069-.019-4.069-6.2,0-6.222C60.316,36.241,60.316,42.426,56.246,42.445Z" transform="translate(764.169 1975)" fill="#282c32"/></g></svg>