<svg xmlns="http://www.w3.org/2000/svg" width="56.505" height="53.689" viewBox="0 0 56.505 53.689"><path d="M514.611,268.642l-.006,2.534a4.679,4.679,0,0,1-4.675,4.658h0a4.669,4.669,0,0,1-3.432-1.517l-5.153-5.629H490.706a9.6,9.6,0,0,1-9.813-9.337v-7.868a8.926,8.926,0,0,1,1.182-4.44H471.307c-4.384,0-7.938,3.282-7.938,7.331v28.61c0,4.049,3.554,7.331,7.938,7.331H474a.612.612,0,0,1,.612.611l.016,7.1a1.387,1.387,0,0,0,2.41.933l7.729-8.443a.612.612,0,0,1,.451-.2h26.361c4.384,0,7.938-3.282,7.938-7.331V266.821A10.047,10.047,0,0,1,514.611,268.642Z" transform="translate(-463.369 -245.723)" fill="#f2ca4b"/><path d="M567.845,242.33H544.914a6.013,6.013,0,0,0-6.237,5.76v7.868a6.013,6.013,0,0,0,6.237,5.76h12a.481.481,0,0,1,.355.156l6.073,6.634a1.09,1.09,0,0,0,1.893-.733l.013-5.577a.481.481,0,0,1,.481-.48h2.114a6.013,6.013,0,0,0,6.237-5.76V248.09A6.013,6.013,0,0,0,567.845,242.33Zm-20.629,12.631a2.906,2.906,0,1,1,2.906-2.906A2.906,2.906,0,0,1,547.215,254.961Zm9.164,0a2.906,2.906,0,1,1,2.906-2.906A2.906,2.906,0,0,1,556.379,254.961Zm9.164,0a2.906,2.906,0,1,1,2.906-2.906A2.906,2.906,0,0,1,565.544,254.961Z" transform="translate(-517.577 -242.33)"/></svg>