<svg xmlns="http://www.w3.org/2000/svg" width="130" height="130" viewBox="0 0 130 130"><g transform="translate(-1330 -1943)"><rect width="130" height="130" rx="24" transform="translate(1330 1943)" fill="#f2ca4b"/><path d="M62.223,0H12.445A12.457,12.457,0,0,0,0,12.445V49.779A12.457,12.457,0,0,0,12.445,62.223h9.094L33.2,72.042a6.254,6.254,0,0,0,4.163,1.584,6.028,6.028,0,0,0,4.02-1.509L53.35,62.223h8.873A12.457,12.457,0,0,0,74.668,49.779V12.445A12.457,12.457,0,0,0,62.223,0ZM24.407,35.669a6.152,6.152,0,0,1-6.275,4.776,8.818,8.818,0,0,1-6.552-2.812l-.006-.006a1.91,1.91,0,0,1,.131-2.7l.016-.016a1.913,1.913,0,0,1,2.7.131l.006.006A5.042,5.042,0,0,0,18.132,36.6a2.406,2.406,0,0,0,2.492-1.605c.19-1.061-1.388-1.73-1.879-1.91-2.315-.852-4.4-1.786-4.4-1.786a4.841,4.841,0,0,1-2.392-4.86,5.266,5.266,0,0,1,3.814-4.247c4.054-1.223,7.408,1.534,7.545,1.652l.009.006a1.913,1.913,0,0,1,.233,2.694l-.016.016a1.913,1.913,0,0,1-2.694.233,4.813,4.813,0,0,0-3.97-.921,1.4,1.4,0,0,0-1.114,1.111.935.935,0,0,0,.4.93c.05,0,1.888.809,3.914,1.559,3.761,1.388,4.7,4.11,4.334,6.194Zm21.912,2.747A1.924,1.924,0,0,1,44.4,40.339h-.009a1.924,1.924,0,0,1-1.923-1.923V28.364L38.5,32.655a1.926,1.926,0,0,1-2.828,0l-3.964-4.293L31.706,38.42a1.923,1.923,0,0,1-3.845,0V24.535a2.65,2.65,0,0,1,4.648-1.742l4.583,5.245,4.583-5.245a2.65,2.65,0,0,1,4.648,1.742V38.42Zm17.2-2.85a6.152,6.152,0,0,1-6.275,4.776A8.818,8.818,0,0,1,50.69,37.53l-.006-.006a1.91,1.91,0,0,1,.131-2.7l.016-.016a1.913,1.913,0,0,1,2.7.131l.006.006a5.042,5.042,0,0,0,3.705,1.549,2.406,2.406,0,0,0,2.492-1.605c.19-1.061-1.388-1.73-1.879-1.91-2.315-.852-4.4-1.786-4.4-1.786a4.841,4.841,0,0,1-2.392-4.86,5.266,5.266,0,0,1,3.814-4.247c4.054-1.223,7.408,1.534,7.545,1.652l.009.006a1.913,1.913,0,0,1,.233,2.694l-.016.016a1.913,1.913,0,0,1-2.694.233,4.813,4.813,0,0,0-3.97-.921,1.4,1.4,0,0,0-1.114,1.111.935.935,0,0,0,.4.93c.047,0,1.888.809,3.914,1.559,3.761,1.388,4.7,4.11,4.334,6.194Z" transform="translate(1358 1971)" fill="#282c32"/></g></svg>