<svg xmlns="http://www.w3.org/2000/svg" width="274.529" height="55.533" viewBox="0 0 274.529 55.533"><g transform="translate(-463.369 -238.318)"><g transform="translate(536.72 238.318)"><path d="M739.44,302.517h4.839c0,2.209,2.314,3.471,5.417,3.471h2.209c3.734,0,5.522-1.63,5.522-4.155,0-2.472-1.788-3.839-5-4.365l-3.892-.631c-5.733-.947-8.415-3.576-8.415-8.257,0-5.259,3.524-8.152,9.888-8.152h2c5.89,0,9.73,2.84,9.73,7.206H756.9c0-1.841-1.946-3-5-3h-2c-3.313,0-5.154,1.42-5.154,3.945,0,2.209,1.525,3.419,4.47,3.892l3.892.631c6.206,1,8.941,3.471,8.941,8.52,0,5.365-3.419,8.573-10.256,8.573h-2.209C743.648,310.2,739.44,307.3,739.44,302.517Z" transform="translate(-739.44 -268.909)"/><path d="M838.931,280.578h4.155v3.471h.316a4.734,4.734,0,0,1,4.839-4c2.314,0,4.05,1.525,4.786,4h.315a4.843,4.843,0,0,1,4.944-4c3.471,0,5.89,3.05,5.89,7.468V309.5h-4.365V287.468c0-2.419-1.157-3.787-3.156-3.787-2.051,0-3.208,1.368-3.208,3.734V309.5H849.66V287.468c0-2.419-1.21-3.787-3.261-3.787-2,0-3.1,1.368-3.1,3.734V309.5h-4.365Z" transform="translate(-811.055 -268.639)"/><path d="M949.685,302.517h4.839c0,2.209,2.314,3.471,5.417,3.471h2.209c3.734,0,5.522-1.63,5.522-4.155,0-2.472-1.788-3.839-5-4.365l-3.892-.631c-5.733-.947-8.415-3.576-8.415-8.257,0-5.259,3.524-8.152,9.888-8.152h2c5.89,0,9.73,2.84,9.73,7.206h-4.839c0-1.841-1.946-3-5-3h-2c-3.313,0-5.154,1.42-5.154,3.945,0,2.209,1.525,3.419,4.47,3.892l3.892.631c6.206,1,8.941,3.471,8.941,8.52,0,5.365-3.419,8.573-10.256,8.573h-2.209C953.892,310.2,949.685,307.3,949.685,302.517Z" transform="translate(-890.778 -268.909)"/><path d="M1055.369,280.578h4.734V286.1h.052c.526-3.787,3.524-6.048,7.889-6.048,5.786,0,9.572,4.1,9.572,10.729v8.468c0,6.68-3.734,10.782-9.572,10.782-4.313,0-7.363-2.314-7.889-6.048H1060l.1,6.575v8.415h-4.734Zm17.514,18.408V291.1c0-4.471-2.419-6.943-6.416-6.943-3.892,0-6.364,2.577-6.364,6.943v7.889c0,4.366,2.472,6.943,6.364,6.943C1070.464,305.928,1072.883,303.457,1072.883,298.986Z" transform="translate(-966.851 -268.639)"/><path d="M1155.235,301.353c0-5.365,3.787-8.678,9.73-8.678h8.941v-2.893c0-3.524-2.419-5.575-6.206-5.575-3.629,0-5.891,1.946-6.259,4h-4.734c.579-4.786,5.1-8.152,11.15-8.152,6.627,0,10.782,3.682,10.782,9.572V309.5h-4.629v-5.522h-.052c-.421,3.734-3.84,6.048-8.889,6.048C1158.969,310.031,1155.235,306.717,1155.235,301.353Zm18.671-1.052v-4.1h-8.836c-3.156,0-5.1,1.893-5.1,4.891,0,3.261,2.314,5.207,6.259,5.207C1170.7,306.3,1173.906,303.825,1173.906,300.3Z" transform="translate(-1038.736 -268.639)"/><path d="M1264.112,276.332v-8.468c0-6.68,3.787-10.782,9.625-10.782,4.313,0,7.311,2.314,7.836,6.048h.158l-.105-6.574v-8.415h4.734v38.394h-4.734v-5.522h-.052c-.526,3.787-3.471,6.048-7.836,6.048C1267.951,287.061,1264.112,282.958,1264.112,276.332Zm17.514-.316v-7.889c0-4.365-2.419-6.943-6.311-6.943-4,0-6.469,2.472-6.469,6.943v7.889c0,4.471,2.472,6.943,6.469,6.943C1279.206,282.958,1281.626,280.381,1281.626,276.016Z" transform="translate(-1117.107 -245.669)"/><path d="M1369.234,275.871h10.256v-20.3h-9.2v-4.313h13.938v24.614h9.73v4.313h-24.719Zm8.362-33.135c0-2.1,1.42-3.419,3.734-3.419s3.734,1.315,3.734,3.419c0,2.051-1.42,3.313-3.734,3.313S1377.6,244.788,1377.6,242.737Z" transform="translate(-1192.775 -239.318)"/></g><g transform="translate(463.369 240.162)"><path d="M514.611,268.642l-.006,2.534a4.679,4.679,0,0,1-4.675,4.658h0a4.669,4.669,0,0,1-3.432-1.517l-5.153-5.629H490.706a9.6,9.6,0,0,1-9.813-9.337v-7.868a8.926,8.926,0,0,1,1.182-4.44H471.307c-4.384,0-7.938,3.282-7.938,7.331v28.61c0,4.049,3.554,7.331,7.938,7.331H474a.612.612,0,0,1,.612.611l.016,7.1a1.387,1.387,0,0,0,2.41.933l7.729-8.443a.612.612,0,0,1,.451-.2h26.361c4.384,0,7.938-3.282,7.938-7.331V266.821A10.047,10.047,0,0,1,514.611,268.642Z" transform="translate(-463.369 -245.723)" fill="#f2ca4b"/><path d="M567.845,242.33H544.914a6.013,6.013,0,0,0-6.237,5.76v7.868a6.013,6.013,0,0,0,6.237,5.76h12a.481.481,0,0,1,.355.156l6.073,6.634a1.09,1.09,0,0,0,1.893-.733l.013-5.577a.481.481,0,0,1,.481-.48h2.114a6.013,6.013,0,0,0,6.237-5.76V248.09A6.013,6.013,0,0,0,567.845,242.33Zm-20.629,12.631a2.906,2.906,0,1,1,2.906-2.906A2.906,2.906,0,0,1,547.215,254.961Zm9.164,0a2.906,2.906,0,1,1,2.906-2.906A2.906,2.906,0,0,1,556.379,254.961Zm9.164,0a2.906,2.906,0,1,1,2.906-2.906A2.906,2.906,0,0,1,565.544,254.961Z" transform="translate(-517.577 -242.33)"/></g></g></svg>